<svg width="35" height="35" viewBox="0 0 35 35" fill="none" xmlns="http://www.w3.org/2000/svg">
<rect width="35" height="35" rx="5" fill="#E2102A"/>
<path d="M22 13C23.5913 13 25.1174 13.6321 26.2426 14.7574C27.3679 15.8826 28 17.4087 28 19V26H24V19C24 18.4696 23.7893 17.9609 23.4142 17.5858C23.0391 17.2107 22.5304 17 22 17C21.4696 17 20.9609 17.2107 20.5858 17.5858C20.2107 17.9609 20 18.4696 20 19V26H16V19C16 17.4087 16.6321 15.8826 17.7574 14.7574C18.8826 13.6321 20.4087 13 22 13V13Z" stroke="white" stroke-width="2" stroke-linecap="round" stroke-linejoin="round"/>
<path d="M12 14H8V26H12V14Z" stroke="white" stroke-width="2" stroke-linecap="round" stroke-linejoin="round"/>
<path d="M10 11C11.1046 11 12 10.1046 12 9C12 7.89543 11.1046 7 10 7C8.89543 7 8 7.89543 8 9C8 10.1046 8.89543 11 10 11Z" stroke="white" stroke-width="2" stroke-linecap="round" stroke-linejoin="round"/>
<path d="M22 13C23.5913 13 25.1174 13.6321 26.2426 14.7574C27.3679 15.8826 28 17.4087 28 19V26H24V19C24 18.4696 23.7893 17.9609 23.4142 17.5858C23.0391 17.2107 22.5304 17 22 17C21.4696 17 20.9609 17.2107 20.5858 17.5858C20.2107 17.9609 20 18.4696 20 19V26H16V19C16 17.4087 16.6321 15.8826 17.7574 14.7574C18.8826 13.6321 20.4087 13 22 13V13Z" stroke="white" stroke-width="2" stroke-linecap="round" stroke-linejoin="round"/>
<path d="M12 14H8V26H12V14Z" stroke="white" stroke-width="2" stroke-linecap="round" stroke-linejoin="round"/>
<path d="M10 11C11.1046 11 12 10.1046 12 9C12 7.89543 11.1046 7 10 7C8.89543 7 8 7.89543 8 9C8 10.1046 8.89543 11 10 11Z" stroke="white" stroke-width="2" stroke-linecap="round" stroke-linejoin="round"/>
</svg>
